<?xml version="1.0" standalone="no"?>
<!DOCTYPE svg PUBLIC "-//W3C//DTD SVG 20010904//EN"
 "http://www.w3.org/TR/2001/REC-SVG-20010904/DTD/svg10.dtd">
<svg version="1.0" xmlns="http://www.w3.org/2000/svg"
 width="260.000000pt" height="260.000000pt" viewBox="0 0 260.000000 260.000000"
 preserveAspectRatio="xMidYMid meet">
<metadata>
Created by potrace 1.11, written by Peter Selinger 2001-2013
</metadata>
<g transform="translate(0.000000,260.000000) scale(0.100000,-0.100000)"
fill="#000000" stroke="none">
<path d="M1389 2520 c-182 -49 -227 -264 -94 -452 155 -221 167 -248 184 -420
1 -4 8 -5 16 -2 31 12 46 117 29 219 -6 39 -28 112 -77 251 -29 82 -44 174
-28 174 6 0 10 -5 8 -11 -1 -7 21 -21 49 -33 135 -56 240 -147 334 -289 l58
-87 50 45 c27 25 57 63 66 85 18 45 31 56 15 13 -18 -49 -50 -87 -121 -143
-120 -95 -217 -213 -246 -299 -13 -38 -16 -101 -4 -101 4 0 23 24 42 52 62 92
161 182 267 243 108 64 184 130 214 188 41 80 34 186 -17 247 -53 62 -116 75
-191 39 l-43 -21 43 -48 c40 -44 76 -120 57 -120 -4 0 -11 15 -14 33 -19 102
-314 277 -466 277 -47 -1 -69 -12 -88 -45 -6 -11 -12 -14 -12 -7 0 7 12 24 26
37 34 31 96 33 177 6 32 -10 57 -14 57 -9 0 22 -41 96 -71 126 -49 50 -143 72
-220 52z m66 -110 c9 -14 -32 -50 -50 -44 -14 6 -13 15 8 42 11 14 33 16 42 2z
m-62 -90 c3 -10 -1 -27 -8 -37 -12 -16 -15 -16 -28 -3 -11 11 -12 22 -6 38 10
27 35 29 42 2z m1 -106 c9 -22 -14 -50 -25 -32 -13 20 -10 48 5 48 8 0 17 -7
20 -16z m24 -102 c3 -16 -1 -20 -12 -16 -19 7 -22 48 -3 42 6 -3 13 -14 15
-26z m652 -33 c0 -26 -16 -32 -34 -13 -22 21 -3 62 20 43 8 -6 14 -20 14 -30z
m-622 -38 c3 -8 -1 -12 -9 -9 -7 2 -15 10 -17 17 -3 8 1 12 9 9 7 -2 15 -10
17 -17z m606 -40 c3 -5 -3 -20 -13 -32 -18 -22 -20 -22 -26 -6 -11 27 25 62
39 38z m-60 -80 c8 -12 -21 -34 -34 -26 -8 5 -8 11 1 21 13 16 25 18 33 5z
m-64 -50 c0 -12 -20 -25 -27 -18 -7 7 6 27 18 27 5 0 9 -4 9 -9z"/>
<path d="M1145 2375 c-38 -7 -96 -22 -127 -34 -65 -23 -203 -93 -233 -119 -75
-63 -86 -147 -28 -214 14 -16 19 -13 58 40 54 73 85 103 150 146 62 42 134 71
195 80 38 5 46 10 47 29 1 12 5 37 8 55 3 17 5 32 3 31 -2 0 -34 -7 -73 -14z"/>
<path d="M645 2277 c-69 -22 -115 -90 -120 -177 -7 -118 48 -182 216 -254 140
-59 200 -102 229 -161 33 -68 50 -72 55 -13 3 36 -28 106 -67 149 -13 14 -61
56 -108 94 -47 37 -97 86 -112 108 -50 72 -32 148 49 213 l27 21 -40 13 c-51
17 -92 19 -129 7z m48 -109 c6 -19 -11 -48 -28 -48 -18 0 -20 31 -3 48 15 15
25 15 31 0z m-1 -140 c-17 -17 -47 14 -38 38 6 16 8 16 29 -4 17 -17 19 -24 9
-34z m51 -53 c9 -21 -9 -28 -27 -9 -21 20 -20 24 3 24 10 0 21 -7 24 -15z m55
-54 c3 -8 -1 -12 -9 -9 -7 2 -15 10 -17 17 -3 8 1 12 9 9 7 -2 15 -10 17 -17z
m47 -31 c3 -5 1 -10 -4 -10 -6 0 -11 5 -11 10 0 6 2 10 4 10 3 0 8 -4 11 -10z"/>
<path d="M507 1943 c-76 -121 -113 -203 -151 -335 -29 -102 -40 -182 -40 -313
-1 -324 60 -392 297 -328 62 17 62 18 46 78 -39 139 -45 424 -14 590 11 55 37
150 50 182 l13 31 -54 27 c-29 14 -69 44 -88 67 l-35 40 -24 -39z"/>
<path d="M2092 1865 c-29 -29 -79 -67 -112 -84 -55 -30 -58 -33 -50 -59 5 -15
16 -52 25 -82 42 -136 55 -247 50 -445 -3 -125 -9 -211 -19 -250 -22 -83 -20
-93 12 -102 34 -8 97 -8 143 0 50 10 113 74 133 135 17 51 19 58 31 132 4 25
9 54 11 65 6 27 5 224 0 255 -3 14 -7 45 -10 70 -3 25 -13 70 -21 100 -8 30
-17 62 -19 70 -14 54 -98 234 -113 243 -5 3 -32 -19 -61 -48z"/>
<path d="M243 1223 c-78 -50 -114 -180 -79 -281 51 -145 196 -213 346 -162
172 57 327 190 354 302 10 45 -10 40 -67 -16 -68 -66 -138 -101 -241 -122 -65
-14 -85 -14 -123 -3 -82 23 -126 117 -132 287 -1 28 -8 28 -58 -5z m70 -205
c13 -20 2 -49 -17 -42 -16 6 -25 32 -18 52 5 16 22 11 35 -10z m61 -84 c29
-28 16 -48 -20 -32 -26 12 -33 48 -10 48 8 0 22 -7 30 -16z m263 -7 c-4 -12
-37 -19 -37 -8 0 12 9 18 25 18 9 0 14 -5 12 -10z m-83 -34 c-12 -9 -21 -10
-28 -3 -14 14 11 31 32 22 12 -4 12 -7 -4 -19z m-75 3 c9 -11 7 -15 -11 -19
-26 -7 -38 -1 -38 19 0 18 34 18 49 0z"/>
<path d="M1827 1108 c-82 -107 -69 -247 32 -348 74 -73 172 -110 297 -110 172
0 280 96 292 260 6 92 -21 142 -100 185 -30 17 -29 17 -43 -55 -21 -107 -94
-193 -177 -208 -167 -32 -268 52 -265 220 0 43 -2 80 -5 83 -3 4 -17 -9 -31
-27z m483 -212 c0 -22 -16 -36 -41 -36 -14 0 -10 27 7 44 22 23 34 20 34 -8z
m-70 -72 c0 -16 -37 -37 -50 -29 -16 10 -12 33 7 43 21 12 43 5 43 -14z m-280
-6 c0 -13 -23 -5 -28 10 -2 7 2 10 12 6 9 -3 16 -11 16 -16z m80 -17 c0 -16
-14 -20 -33 -10 -15 9 -17 13 -7 19 14 9 40 3 40 -9z m97 -7 c5 -14 -30 -24
-47 -14 -7 4 -9 13 -5 19 8 15 47 10 52 -5z"/>
<path d="M1083 914 c-69 -33 -128 -102 -189 -220 -86 -167 -169 -222 -285
-190 -25 7 -27 5 -34 -32 -23 -136 111 -231 235 -167 68 35 110 109 179 315
48 142 71 184 135 255 25 28 46 53 46 58 0 14 -35 6 -87 -19z m-151 -226 c-7
-7 -12 -8 -12 -2 0 14 12 26 19 19 2 -3 -1 -11 -7 -17z m-24 -65 c-2 -9 -8
-18 -15 -20 -7 -3 -9 3 -6 16 6 25 26 28 21 4z m-42 -88 c-6 -16 -36 -21 -36
-6 0 5 8 17 17 27 18 18 30 6 19 -21z m-68 -57 c4 -21 -37 -35 -49 -17 -6 9
-3 18 8 27 21 15 37 11 41 -10z"/>
<path d="M1373 880 c-13 -5 -23 -12 -23 -15 0 -3 23 -17 52 -30 86 -40 112
-73 203 -259 112 -229 177 -299 287 -310 78 -8 164 40 186 103 11 33 7 107 -8
146 -10 26 -13 28 -23 15 -7 -9 -26 -25 -43 -37 -93 -66 -179 -15 -279 165
-54 96 -129 178 -190 207 -46 21 -129 29 -162 15z m337 -246 c0 -8 -4 -14 -10
-14 -5 0 -10 9 -10 21 0 11 5 17 10 14 6 -3 10 -13 10 -21z m38 -74 c3 -21 2
-22 -12 -11 -19 16 -21 44 -3 39 6 -3 14 -15 15 -28z m50 -52 c17 -17 15 -38
-3 -38 -16 0 -38 34 -28 44 9 9 18 7 31 -6z m97 -88 c0 -23 -23 -22 -46 1 -17
17 -19 23 -8 30 16 10 54 -12 54 -31z m100 20 c9 -15 -14 -40 -36 -40 -21 0
-25 20 -7 38 15 15 35 15 43 2z"/>
<path d="M650 835 c-30 -19 -89 -47 -130 -61 -41 -15 -76 -28 -78 -30 -5 -3
60 -106 105 -165 45 -61 76 -77 135 -73 47 4 84 23 127 67 l34 36 -24 38 c-13
21 -44 79 -69 130 l-45 92 -55 -34z"/>
<path d="M1894 678 c-4 -13 -22 -47 -41 -76 -41 -64 -37 -83 20 -111 76 -37
128 -11 219 110 l27 35 -62 13 c-34 7 -79 21 -101 32 -50 24 -53 24 -62 -3z"/>
<path d="M931 438 c-10 -24 -34 -61 -51 -83 l-32 -40 59 -27 c176 -79 321
-103 518 -84 79 8 186 38 269 76 l67 31 -41 49 -40 48 -53 -29 c-189 -105
-435 -80 -624 62 l-52 39 -20 -42z"/>
</g>
</svg>
